<mxfile host="Electron" agent="Mozilla/5.0 (Windows NT 10.0; Win64; x64) AppleWebKit/537.36 (KHTML, like Gecko) draw.io/28.0.6 Chrome/138.0.7204.100 Electron/37.2.3 Safari/537.36" version="28.0.6">
  <diagram name="Página-1" id="QgUflRBq8bi5pGIveliM">
    <mxGraphModel dx="4583" dy="1616" grid="1" gridSize="10" guides="1" tooltips="1" connect="1" arrows="1" fold="1" page="1" pageScale="1" pageWidth="827" pageHeight="1169" background="none" math="0" shadow="0">
      <root>
        <mxCell id="0" />
        <mxCell id="1" parent="0" />
        <mxCell id="zNrcEDmUEPQEEOQdZIBm-63" value="Subnet Pública&lt;div&gt;&lt;br&gt;&lt;/div&gt;" style="sketch=0;outlineConnect=0;html=1;whiteSpace=wrap;fontSize=12;fontStyle=0;shape=mxgraph.aws4.group;grIcon=mxgraph.aws4.group_subnet;strokeColor=#2D7600;fillColor=none;verticalAlign=top;align=left;spacingLeft=30;fontColor=#ffffff;dashed=0;" vertex="1" parent="1">
          <mxGeometry x="-31.990000000000002" y="470" width="865.99" height="210" as="geometry" />
        </mxCell>
        <mxCell id="zNrcEDmUEPQEEOQdZIBm-29" style="edgeStyle=orthogonalEdgeStyle;rounded=0;orthogonalLoop=1;jettySize=auto;html=1;entryX=1;entryY=0;entryDx=0;entryDy=0;entryPerimeter=0;flowAnimation=1;" edge="1" parent="1">
          <mxGeometry relative="1" as="geometry">
            <mxPoint x="400.99" y="330" as="targetPoint" />
            <mxPoint x="400.00176470588235" y="290" as="sourcePoint" />
            <Array as="points">
              <mxPoint x="400" y="330" />
            </Array>
          </mxGeometry>
        </mxCell>
        <mxCell id="zNrcEDmUEPQEEOQdZIBm-56" value="CloudFront" style="edgeLabel;html=1;align=center;verticalAlign=middle;resizable=0;points=[];" vertex="1" connectable="0" parent="zNrcEDmUEPQEEOQdZIBm-29">
          <mxGeometry x="0.0172" relative="1" as="geometry">
            <mxPoint x="1" y="-11" as="offset" />
          </mxGeometry>
        </mxCell>
        <mxCell id="zNrcEDmUEPQEEOQdZIBm-12" value="" style="endArrow=none;html=1;strokeColor=#475E75;bendable=1;rounded=0;endFill=0;endSize=4;strokeWidth=1.5;startSize=4;startArrow=none;startFill=0;elbow=vertical;edgeStyle=orthogonalEdgeStyle;flowAnimation=1;" edge="1" parent="1" target="zNrcEDmUEPQEEOQdZIBm-10">
          <mxGeometry relative="1" as="geometry">
            <mxPoint x="398.58" y="100" as="sourcePoint" />
            <Array as="points" />
            <mxPoint x="398.58" y="350" as="targetPoint" />
          </mxGeometry>
        </mxCell>
        <mxCell id="zNrcEDmUEPQEEOQdZIBm-22" value="" style="edgeStyle=orthogonalEdgeStyle;rounded=0;orthogonalLoop=1;jettySize=auto;html=1;flowAnimation=1;" edge="1" parent="1" source="zNrcEDmUEPQEEOQdZIBm-10" target="zNrcEDmUEPQEEOQdZIBm-21">
          <mxGeometry relative="1" as="geometry" />
        </mxCell>
        <mxCell id="zNrcEDmUEPQEEOQdZIBm-10" value="HTTPS + Bearer Token" style="rounded=1;whiteSpace=wrap;html=1;arcSize=50;strokeColor=#475E75;fillColor=#F5F6F7;strokeWidth=1.5;fontColor=#475E75;fontStyle=1;fontSize=10;" vertex="1" parent="1">
          <mxGeometry x="358.88" y="160" width="80.25" height="30" as="geometry" />
        </mxCell>
        <mxCell id="zNrcEDmUEPQEEOQdZIBm-21" value="" style="sketch=0;points=[[0,0,0],[0.25,0,0],[0.5,0,0],[0.75,0,0],[1,0,0],[0,1,0],[0.25,1,0],[0.5,1,0],[0.75,1,0],[1,1,0],[0,0.25,0],[0,0.5,0],[0,0.75,0],[1,0.25,0],[1,0.5,0],[1,0.75,0]];outlineConnect=0;fontColor=#232F3E;fillColor=#8C4FFF;strokeColor=#ffffff;dashed=0;verticalLabelPosition=bottom;verticalAlign=top;align=center;html=1;fontSize=12;fontStyle=0;aspect=fixed;shape=mxgraph.aws4.resourceIcon;resIcon=mxgraph.aws4.cloudfront;" vertex="1" parent="1">
          <mxGeometry x="374" y="240" width="50" height="50" as="geometry" />
        </mxCell>
        <mxCell id="zNrcEDmUEPQEEOQdZIBm-60" style="edgeStyle=orthogonalEdgeStyle;rounded=0;orthogonalLoop=1;jettySize=auto;html=1;flowAnimation=1;" edge="1" parent="1" target="zNrcEDmUEPQEEOQdZIBm-78">
          <mxGeometry relative="1" as="geometry">
            <mxPoint x="398.7500000000001" y="420" as="targetPoint" />
            <mxPoint x="398.7499999999999" y="380" as="sourcePoint" />
          </mxGeometry>
        </mxCell>
        <mxCell id="zNrcEDmUEPQEEOQdZIBm-61" value="WAF + Shield" style="edgeLabel;html=1;align=center;verticalAlign=middle;resizable=0;points=[];" vertex="1" connectable="0" parent="zNrcEDmUEPQEEOQdZIBm-60">
          <mxGeometry x="-0.6029" relative="1" as="geometry">
            <mxPoint x="1" y="-6" as="offset" />
          </mxGeometry>
        </mxCell>
        <mxCell id="zNrcEDmUEPQEEOQdZIBm-24" value="" style="sketch=0;points=[[0,0,0],[0.25,0,0],[0.5,0,0],[0.75,0,0],[1,0,0],[0,1,0],[0.25,1,0],[0.5,1,0],[0.75,1,0],[1,1,0],[0,0.25,0],[0,0.5,0],[0,0.75,0],[1,0.25,0],[1,0.5,0],[1,0.75,0]];outlineConnect=0;fontColor=#232F3E;fillColor=#DD344C;strokeColor=#ffffff;dashed=0;verticalLabelPosition=bottom;verticalAlign=top;align=center;html=1;fontSize=12;fontStyle=0;aspect=fixed;shape=mxgraph.aws4.resourceIcon;resIcon=mxgraph.aws4.waf;" vertex="1" parent="1">
          <mxGeometry x="350" y="330" width="50" height="50" as="geometry" />
        </mxCell>
        <mxCell id="zNrcEDmUEPQEEOQdZIBm-26" value="" style="sketch=0;points=[[0,0,0],[0.25,0,0],[0.5,0,0],[0.75,0,0],[1,0,0],[0,1,0],[0.25,1,0],[0.5,1,0],[0.75,1,0],[1,1,0],[0,0.25,0],[0,0.5,0],[0,0.75,0],[1,0.25,0],[1,0.5,0],[1,0.75,0]];outlineConnect=0;fontColor=#232F3E;fillColor=#DD344C;strokeColor=#ffffff;dashed=0;verticalLabelPosition=bottom;verticalAlign=top;align=center;html=1;fontSize=12;fontStyle=0;aspect=fixed;shape=mxgraph.aws4.resourceIcon;resIcon=mxgraph.aws4.shield;" vertex="1" parent="1">
          <mxGeometry x="400" y="330" width="50" height="50" as="geometry" />
        </mxCell>
        <mxCell id="zNrcEDmUEPQEEOQdZIBm-78" value="&lt;div&gt;ALB&lt;/div&gt;" style="outlineConnect=0;dashed=0;verticalLabelPosition=bottom;verticalAlign=top;align=center;html=1;shape=mxgraph.aws3.application_load_balancer;fillColor=#F58534;gradientColor=none;" vertex="1" parent="1">
          <mxGeometry x="369.5" y="560" width="59" height="60" as="geometry" />
        </mxCell>
        <mxCell id="zNrcEDmUEPQEEOQdZIBm-125" style="edgeStyle=orthogonalEdgeStyle;rounded=0;orthogonalLoop=1;jettySize=auto;html=1;flowAnimation=1;" edge="1" parent="1">
          <mxGeometry relative="1" as="geometry">
            <mxPoint x="-180" y="810" as="targetPoint" />
            <mxPoint x="374" y="810.0434782608697" as="sourcePoint" />
            <Array as="points">
              <mxPoint x="-169.5" y="810" />
            </Array>
          </mxGeometry>
        </mxCell>
        <mxCell id="zNrcEDmUEPQEEOQdZIBm-128" style="edgeStyle=orthogonalEdgeStyle;rounded=0;orthogonalLoop=1;jettySize=auto;html=1;flowAnimation=1;" edge="1" parent="1" source="zNrcEDmUEPQEEOQdZIBm-82">
          <mxGeometry relative="1" as="geometry">
            <mxPoint x="399" y="1020" as="targetPoint" />
          </mxGeometry>
        </mxCell>
        <mxCell id="zNrcEDmUEPQEEOQdZIBm-82" value="ECS Laravel/API" style="sketch=0;points=[[0,0,0],[0.25,0,0],[0.5,0,0],[0.75,0,0],[1,0,0],[0,1,0],[0.25,1,0],[0.5,1,0],[0.75,1,0],[1,1,0],[0,0.25,0],[0,0.5,0],[0,0.75,0],[1,0.25,0],[1,0.5,0],[1,0.75,0]];outlineConnect=0;fontColor=#FFFFFF;fillColor=#ED7100;strokeColor=#ffffff;dashed=0;verticalLabelPosition=bottom;verticalAlign=top;align=center;html=1;fontSize=12;fontStyle=0;aspect=fixed;shape=mxgraph.aws4.resourceIcon;resIcon=mxgraph.aws4.ecs;" vertex="1" parent="1">
          <mxGeometry x="363.5" y="803" width="71" height="71" as="geometry" />
        </mxCell>
        <mxCell id="zNrcEDmUEPQEEOQdZIBm-84" value="RDS Writer&lt;div&gt;&lt;br&gt;&lt;/div&gt;" style="sketch=0;points=[[0,0,0],[0.25,0,0],[0.5,0,0],[0.75,0,0],[1,0,0],[0,1,0],[0.25,1,0],[0.5,1,0],[0.75,1,0],[1,1,0],[0,0.25,0],[0,0.5,0],[0,0.75,0],[1,0.25,0],[1,0.5,0],[1,0.75,0]];outlineConnect=0;fontColor=#FFFFFF;fillColor=#C925D1;strokeColor=#ffffff;dashed=0;verticalLabelPosition=bottom;verticalAlign=top;align=center;html=1;fontSize=12;fontStyle=0;aspect=fixed;shape=mxgraph.aws4.resourceIcon;resIcon=mxgraph.aws4.rds;" vertex="1" parent="1">
          <mxGeometry x="230.05" y="1000" width="71.5" height="71.5" as="geometry" />
        </mxCell>
        <mxCell id="zNrcEDmUEPQEEOQdZIBm-96" value="" style="points=[];aspect=fixed;html=1;align=center;shadow=0;dashed=0;fillColor=#FF6A00;strokeColor=none;shape=mxgraph.alibaba_cloud.redis_kvstore;" vertex="1" parent="1">
          <mxGeometry x="360.97" y="1028.5" width="76.08" height="60" as="geometry" />
        </mxCell>
        <mxCell id="zNrcEDmUEPQEEOQdZIBm-85" value="RDS Standby&lt;div&gt;&lt;br&gt;&lt;/div&gt;" style="sketch=0;points=[[0,0,0],[0.25,0,0],[0.5,0,0],[0.75,0,0],[1,0,0],[0,1,0],[0.25,1,0],[0.5,1,0],[0.75,1,0],[1,1,0],[0,0.25,0],[0,0.5,0],[0,0.75,0],[1,0.25,0],[1,0.5,0],[1,0.75,0]];outlineConnect=0;fontColor=#FFFFFF;fillColor=#C925D1;strokeColor=#ffffff;dashed=0;verticalLabelPosition=bottom;verticalAlign=top;align=center;html=1;fontSize=12;fontStyle=0;aspect=fixed;shape=mxgraph.aws4.resourceIcon;resIcon=mxgraph.aws4.rds;" vertex="1" parent="1">
          <mxGeometry x="510" y="1000" width="70" height="70" as="geometry" />
        </mxCell>
        <mxCell id="zNrcEDmUEPQEEOQdZIBm-129" style="edgeStyle=orthogonalEdgeStyle;rounded=0;orthogonalLoop=1;jettySize=auto;html=1;flowAnimation=1;" edge="1" parent="1" source="zNrcEDmUEPQEEOQdZIBm-90" target="zNrcEDmUEPQEEOQdZIBm-84">
          <mxGeometry relative="1" as="geometry">
            <Array as="points">
              <mxPoint x="200" y="864" />
              <mxPoint x="200" y="1036" />
            </Array>
          </mxGeometry>
        </mxCell>
        <mxCell id="zNrcEDmUEPQEEOQdZIBm-131" style="edgeStyle=orthogonalEdgeStyle;rounded=0;orthogonalLoop=1;jettySize=auto;html=1;flowAnimation=1;" edge="1" parent="1" source="zNrcEDmUEPQEEOQdZIBm-90">
          <mxGeometry relative="1" as="geometry">
            <mxPoint x="-180" y="854.25" as="targetPoint" />
          </mxGeometry>
        </mxCell>
        <mxCell id="zNrcEDmUEPQEEOQdZIBm-90" value="ECS Workers" style="sketch=0;points=[[0,0,0],[0.25,0,0],[0.5,0,0],[0.75,0,0],[1,0,0],[0,1,0],[0.25,1,0],[0.5,1,0],[0.75,1,0],[1,1,0],[0,0.25,0],[0,0.5,0],[0,0.75,0],[1,0.25,0],[1,0.5,0],[1,0.75,0]];outlineConnect=0;fontColor=#FFFFFF;fillColor=#ED7100;strokeColor=#ffffff;dashed=0;verticalLabelPosition=bottom;verticalAlign=top;align=center;html=1;fontSize=12;fontStyle=0;aspect=fixed;shape=mxgraph.aws4.resourceIcon;resIcon=mxgraph.aws4.ecs;" vertex="1" parent="1">
          <mxGeometry x="100" y="820" width="68.5" height="68.5" as="geometry" />
        </mxCell>
        <mxCell id="zNrcEDmUEPQEEOQdZIBm-121" value="AWS Managed Services (SDK / VPC Endpoints)" style="swimlane;whiteSpace=wrap;html=1;startSize=50;fillColor=none;fontColor=#ffffff;strokeColor=#3700CC;" vertex="1" parent="1">
          <mxGeometry x="-430" y="430" width="250" height="803.5" as="geometry" />
        </mxCell>
        <mxCell id="zNrcEDmUEPQEEOQdZIBm-66" value="&lt;font style=&quot;color: rgb(255, 255, 255);&quot;&gt;S3 Images&lt;/font&gt;" style="sketch=0;points=[[0,0,0],[0.25,0,0],[0.5,0,0],[0.75,0,0],[1,0,0],[0,1,0],[0.25,1,0],[0.5,1,0],[0.75,1,0],[1,1,0],[0,0.25,0],[0,0.5,0],[0,0.75,0],[1,0.25,0],[1,0.5,0],[1,0.75,0]];outlineConnect=0;fontColor=#777777;fillColor=#7AA116;strokeColor=#ffffff;dashed=0;verticalLabelPosition=bottom;verticalAlign=top;align=center;html=1;fontSize=12;fontStyle=0;aspect=fixed;shape=mxgraph.aws4.resourceIcon;resIcon=mxgraph.aws4.s3;" vertex="1" parent="zNrcEDmUEPQEEOQdZIBm-121">
          <mxGeometry x="90" y="75" width="55" height="55" as="geometry" />
        </mxCell>
        <mxCell id="zNrcEDmUEPQEEOQdZIBm-67" value="SES" style="outlineConnect=0;dashed=0;verticalLabelPosition=bottom;verticalAlign=top;align=center;html=1;shape=mxgraph.aws3.ses;fillColor=#D9A741;gradientColor=none;" vertex="1" parent="zNrcEDmUEPQEEOQdZIBm-121">
          <mxGeometry x="85" y="190" width="65" height="50" as="geometry" />
        </mxCell>
        <mxCell id="zNrcEDmUEPQEEOQdZIBm-68" value="SQS&lt;div&gt;&lt;br&gt;&lt;/div&gt;" style="outlineConnect=0;dashed=0;verticalLabelPosition=bottom;verticalAlign=top;align=center;html=1;shape=mxgraph.aws3.sqs;fillColor=#D9A741;gradientColor=none;" vertex="1" parent="zNrcEDmUEPQEEOQdZIBm-121">
          <mxGeometry x="90" y="290" width="60" height="70" as="geometry" />
        </mxCell>
        <mxCell id="zNrcEDmUEPQEEOQdZIBm-71" value="Amazon CloudWatch" style="sketch=0;outlineConnect=0;fontColor=#232F3E;gradientColor=none;strokeColor=#ffffff;fillColor=#232F3E;dashed=0;verticalLabelPosition=middle;verticalAlign=bottom;align=center;html=1;whiteSpace=wrap;fontSize=10;fontStyle=1;spacing=3;shape=mxgraph.aws4.productIcon;prIcon=mxgraph.aws4.cloudwatch;" vertex="1" parent="zNrcEDmUEPQEEOQdZIBm-121">
          <mxGeometry x="80" y="410" width="80" height="110" as="geometry" />
        </mxCell>
        <mxCell id="zNrcEDmUEPQEEOQdZIBm-69" value="AWS Secrets Manager" style="sketch=0;outlineConnect=0;fontColor=#232F3E;gradientColor=none;strokeColor=#ffffff;fillColor=#232F3E;dashed=0;verticalLabelPosition=middle;verticalAlign=bottom;align=center;html=1;whiteSpace=wrap;fontSize=10;fontStyle=1;spacing=3;shape=mxgraph.aws4.productIcon;prIcon=mxgraph.aws4.secrets_manager;" vertex="1" parent="zNrcEDmUEPQEEOQdZIBm-121">
          <mxGeometry x="80" y="540" width="80" height="110" as="geometry" />
        </mxCell>
        <mxCell id="zNrcEDmUEPQEEOQdZIBm-73" value="" style="shape=image;verticalLabelPosition=bottom;labelBackgroundColor=default;verticalAlign=top;aspect=fixed;imageAspect=0;image=data:image/webp,UklGRuQEAABXRUJQVlA4TNcEAAAvK8FKEEdAkG1Tf5IJnO8aZAIWFlH/HN6ZYwIBip5pOsuEoDn0N+oa0gUEJW2f5LRdM0h46cY+QJTHB0AmBwDHB8jEsMwIXmZGy0ygPnfXr6pLPO5K/iMR/YfgtpEjSbNYXeidqc616QPOqOPkPyf/OfnP//1wOzCJifdDi7jwfm6To0xylEUGGWSQPWYyx0zWWJAxmKSZF2UKRunCKE3+AdSXjUl6GUJpkQ4h3KVlg1UywSpZYKUMsFL5W63srVbuVqvK3XoN83YHZW696rzdQf28rVeVt1UywSpZYKVy9/sQ9Kpc1nRQP2eeBLUy3+Vcq7oV9CLMMG/eKzHgaI3ive7PJmnknEVqnLNEu9YQvyuZVrRmHsA2PKogNQVrHLIN51nT6Uohc7HBmkXxYISjUhmVDVeVNHs0OEqoG36U0kTdlPdv2RZ0RYnc4AioVvhDODtOVrvbFcdatRWpeH2feR/CsWgRqsxs7OG4MYD3Ysr7gD9HN4CWk346rE81WSzfQmCBLBJIlX2SyrKh3JcQlgse7mIBISwWRQff4Zt/1e0UX5Ia+/6V99d4lYe+HkBrzWdjf53gSRuaEsEotiV04ugLxfOlDUuIbheaJa9l8QTCKvYhFPhyeQev4fdqiCckrqm3Bo71XYVcUCwMIfCG84SiuANWFAE8DYG2ggAEIKziPfAtok+bqC7n9LodnnYYGeNTYz7M50QFL+4xpMDXjAPODAKauWU1eonDQGTLTutcfLg+xYS4LnmXIB5+GFIc1F+VMN4rBtupt1GMGMEO2iaRS0MrbdsY6MtYbrcjApVgzXinyDAlWCs4uEqf6GMEjspNYkzEzSPvPQcHI5UrCIxiHxpg+Y4ysnesqdYQFHsY0BSuJVrFotGmccQ5UjsqO6eyDmYdBnaZBOcU8I2a+wm2/h3UylHjUCglVJuDWxhvuDKdjCvuGINIj7oLqGE49SJ1HN0y76HbW8YezoCcsTHxLTSszfZhLcLqXbxU0Ka45L/I1HxNV/KNz1HgwDeCNLi+iOAYfoInTz9vUdCXikAM55Fz/ro6nSjJXsmIxhKMYkDa4gVwDFN439Il20jyRDVLDZx8J9Pxbn90qGAMrtNrZWs83wBcE3PornmkwkhVvOcpPMJrluQJ33UlRsCeOEvwTQZqNaZFkMr1iAoW8h77zONMg1Q7xjeI/omOMsaTBBszXXIfEgdcjR0DaJlrtp5Dn130NbD58qQtAVgKKYo0roUlfO0osu2XQuAJVLgzE/F1/bGUTF1Cz1U6aGI10p5CW0ac10mgik0by2P1JRxs113/LGxlQ4407bwSYWcFsIE1sCrqaCPdXq8unHC7ccANvnMkvFisQAoef+FRFArcO2JFgclA8525pBIGZtPxw1uH9Cfj6jGGM/XVjdPiNm2zcpyXX2lfTSJER4HRBSTeU1KnVypf5rh7eshpLyYUaYnOA0W9N7AodFCRKd/wkQoJzpRDUPznFqS3m06HedC4BA98LWid73sem22RHhl+IC1sGR9pexQ4ZxRmMsceMreXu5Gzgasp3/MrYz52PeDJtjHUUnpkyTmEo2fUR9SHRn31wa6viVikuV1fP7JIc7u+1maSBs4m1c4oDY3SwCRZBP+Qkkm3oTPqOPnPyX9O/vP/WDgA;" vertex="1" parent="zNrcEDmUEPQEEOQdZIBm-121">
          <mxGeometry x="75" y="670" width="90" height="90" as="geometry" />
        </mxCell>
        <mxCell id="zNrcEDmUEPQEEOQdZIBm-123" style="edgeStyle=orthogonalEdgeStyle;rounded=0;orthogonalLoop=1;jettySize=auto;html=1;entryX=0.5;entryY=0;entryDx=0;entryDy=0;entryPerimeter=0;flowAnimation=1;" edge="1" parent="1" source="zNrcEDmUEPQEEOQdZIBm-78" target="zNrcEDmUEPQEEOQdZIBm-82">
          <mxGeometry relative="1" as="geometry" />
        </mxCell>
        <mxCell id="zNrcEDmUEPQEEOQdZIBm-124" style="edgeStyle=orthogonalEdgeStyle;rounded=0;orthogonalLoop=1;jettySize=auto;html=1;entryX=0.5;entryY=0;entryDx=0;entryDy=0;entryPerimeter=0;flowAnimation=1;" edge="1" parent="1" source="zNrcEDmUEPQEEOQdZIBm-82" target="zNrcEDmUEPQEEOQdZIBm-84">
          <mxGeometry relative="1" as="geometry" />
        </mxCell>
        <mxCell id="zNrcEDmUEPQEEOQdZIBm-133" value="Region (ex: Ohio)" style="points=[[0,0],[0.25,0],[0.5,0],[0.75,0],[1,0],[1,0.25],[1,0.5],[1,0.75],[1,1],[0.75,1],[0.5,1],[0.25,1],[0,1],[0,0.75],[0,0.5],[0,0.25]];outlineConnect=0;gradientColor=none;html=1;whiteSpace=wrap;fontSize=12;fontStyle=0;container=1;pointerEvents=0;collapsible=0;recursiveResize=0;shape=mxgraph.aws4.group;grIcon=mxgraph.aws4.group_region;strokeColor=#00A4A6;fillColor=none;verticalAlign=top;align=left;spacingLeft=30;fontColor=#147EBA;dashed=1;" vertex="1" parent="1">
          <mxGeometry x="-158.5" y="402" width="1110" height="936" as="geometry" />
        </mxCell>
        <mxCell id="zNrcEDmUEPQEEOQdZIBm-136" value="Nat Gateway" style="outlineConnect=0;dashed=0;verticalLabelPosition=bottom;verticalAlign=top;align=center;html=1;shape=mxgraph.aws3.vpc_nat_gateway;fillColor=#F58534;gradientColor=none;" vertex="1" parent="zNrcEDmUEPQEEOQdZIBm-133">
          <mxGeometry x="378.5" y="158" width="60" height="60" as="geometry" />
        </mxCell>
        <mxCell id="zNrcEDmUEPQEEOQdZIBm-138" value="ElastiCache Redis" style="outlineConnect=0;dashed=0;verticalLabelPosition=bottom;verticalAlign=top;align=center;html=1;shape=mxgraph.aws3.elasticache;fillColor=#2E73B8;gradientColor=none;" vertex="1" parent="zNrcEDmUEPQEEOQdZIBm-133">
          <mxGeometry x="798.5" y="598" width="67.5" height="81" as="geometry" />
        </mxCell>
        <mxCell id="zNrcEDmUEPQEEOQdZIBm-140" style="edgeStyle=orthogonalEdgeStyle;rounded=0;orthogonalLoop=1;jettySize=auto;html=1;entryX=0.02;entryY=0.404;entryDx=0;entryDy=0;entryPerimeter=0;flowAnimation=1;" edge="1" parent="zNrcEDmUEPQEEOQdZIBm-133" source="zNrcEDmUEPQEEOQdZIBm-114">
          <mxGeometry relative="1" as="geometry">
            <mxPoint x="327" y="448" as="sourcePoint" />
            <mxPoint x="520.9915999999998" y="646.4900000000002" as="targetPoint" />
            <Array as="points">
              <mxPoint x="327" y="449" />
              <mxPoint x="489" y="449" />
              <mxPoint x="489" y="646" />
            </Array>
          </mxGeometry>
        </mxCell>
        <mxCell id="zNrcEDmUEPQEEOQdZIBm-114" value="&lt;div&gt;Subnet Privada APP&lt;/div&gt;" style="sketch=0;outlineConnect=0;html=1;whiteSpace=wrap;fontSize=12;fontStyle=0;shape=mxgraph.aws4.group;grIcon=mxgraph.aws4.group_subnet;strokeColor=#2D7600;fillColor=none;verticalAlign=top;align=left;spacingLeft=30;fontColor=#ffffff;dashed=0;" vertex="1" parent="zNrcEDmUEPQEEOQdZIBm-133">
          <mxGeometry x="126.50999999999999" y="323.12" width="866" height="213.25" as="geometry" />
        </mxCell>
        <mxCell id="zNrcEDmUEPQEEOQdZIBm-115" value="&lt;div&gt;Subnet Privada Data&lt;/div&gt;" style="sketch=0;outlineConnect=0;html=1;whiteSpace=wrap;fontSize=12;fontStyle=0;shape=mxgraph.aws4.group;grIcon=mxgraph.aws4.group_subnet;strokeColor=#2D7600;fillColor=none;verticalAlign=top;align=left;spacingLeft=30;fontColor=#ffffff;dashed=0;" vertex="1" parent="zNrcEDmUEPQEEOQdZIBm-133">
          <mxGeometry x="126.50999999999999" y="558" width="867" height="210" as="geometry" />
        </mxCell>
        <mxCell id="zNrcEDmUEPQEEOQdZIBm-30" value="VPC" style="outlineConnect=0;html=1;whiteSpace=wrap;fontSize=12;fontStyle=0;shape=mxgraph.aws4.group;grIcon=mxgraph.aws4.group_vpc;verticalAlign=top;align=left;spacingLeft=30;dashed=0;fillColor=none;fontColor=#ffffff;strokeColor=#2D7600;fillStyle=auto;shadow=0;sketch=1;curveFitting=1;jiggle=2;" vertex="1" parent="zNrcEDmUEPQEEOQdZIBm-133">
          <mxGeometry x="42.00999999999999" y="38" width="1036" height="860" as="geometry" />
        </mxCell>
        <mxCell id="zNrcEDmUEPQEEOQdZIBm-137" value="Users" style="outlineConnect=0;dashed=0;verticalLabelPosition=bottom;verticalAlign=top;align=center;html=1;shape=mxgraph.aws3.users;fillColor=#1ba1e2;fontColor=#ffffff;strokeColor=#006EAF;" vertex="1" parent="1">
          <mxGeometry x="364" y="30" width="66" height="63" as="geometry" />
        </mxCell>
      </root>
    </mxGraphModel>
  </diagram>
</mxfile>
